<svg xmlns="http://www.w3.org/2000/svg">
  <defs>
    <!-- Icons go here -->
    <symbol id="icon-star" viewbox="0 0 24 30">
        <title>star_rate_favorite_bookmark</title>
        <path d="M21.53,10.33l-5.42,3.93,2.07,6.37a.49.49,0,0,1-.18.56.52.52,0,0,1-.29.09.53.53,0,0,1-.3-.09L12,17.25,6.59,21.19a.53.53,0,0,1-.59,0,.49.49,0,0,1-.18-.56l2.07-6.37L2.47,10.33a.5.5,0,0,1,.3-.9H9.46l2.06-6.37a.53.53,0,0,1,1,0l2.06,6.37h6.69a.5.5,0,0,1,.3.9Z"/>
    </symbol>
    <symbol id="icon-cloud" viewbox="0 0 100 12">
        <title>cloud_symbol</title>
        <path class="cls-1" d="M95,63.167A19.336,19.336,0,0,1,75.716,82.451H24.284A19.279,19.279,0,0,1,19.493,44.5,16.033,16.033,0,0,1,39.445,30.051,21.882,21.882,0,0,1,80.5,44.49,19.365,19.365,0,0,1,95,63.167Z"/>
    </symbol>
    <symbol id="icon-profile" viewbox="0 0 100 125">
        <title>profile_symbol</title>
        <path d="M50,95A45,45,0,1,0,5,50,45.05,45.05,0,0,0,50,95Zm0-3.83a40.93,40.93,0,0,1-24-7.75,1.9,1.9,0,0,0,.06-.47,23.94,23.94,0,0,1,47.87,0,1.9,1.9,0,0,0,.06.47A40.93,40.93,0,0,1,50,91.17ZM38.42,43.6A11.59,11.59,0,1,1,50,55.18,11.6,11.6,0,0,1,38.42,43.6ZM50,8.83A41.15,41.15,0,0,1,77.65,80.48a27.83,27.83,0,0,0-19.23-24,15.41,15.41,0,1,0-16.84,0,27.83,27.83,0,0,0-19.23,24A41.15,41.15,0,0,1,50,8.83Z"/>
    </symbol>
  </defs>
</svg>