<svg xmlns="http://www.w3.org/2000/svg" data-name="Layer 1" viewBox="0 0 100 125" x="0px" y="0px"><title>internet and security network icon set</title><path d="M50,95A45,45,0,1,0,5,50,45.05,45.05,0,0,0,50,95Zm0-3.83a40.93,40.93,0,0,1-24-7.75,1.9,1.9,0,0,0,.06-.47,23.94,23.94,0,0,1,47.87,0,1.9,1.9,0,0,0,.06.47A40.93,40.93,0,0,1,50,91.17ZM38.42,43.6A11.59,11.59,0,1,1,50,55.18,11.6,11.6,0,0,1,38.42,43.6ZM50,8.83A41.15,41.15,0,0,1,77.65,80.48a27.83,27.83,0,0,0-19.23-24,15.41,15.41,0,1,0-16.84,0,27.83,27.83,0,0,0-19.23,24A41.15,41.15,0,0,1,50,8.83Z"/><text x="0" y="115" fill="#000000" font-size="5px" font-weight="bold" font-family="'Helvetica Neue', Helvetica, Arial-Unicode, Arial, Sans-serif">Created by fajar hasyim</text><text x="0" y="120" fill="#000000" font-size="5px" font-weight="bold" font-family="'Helvetica Neue', Helvetica, Arial-Unicode, Arial, Sans-serif">from the Noun Project</text></svg>