<svg xmlns="http://www.w3.org/2000/svg" viewBox="0 0 24 30" x="0px" y="0px">
    <title>star_rate_favorite_bookmark</title>
    <path d="M21.53,10.33l-5.42,3.93,2.07,6.37a.49.49,0,0,1-.18.56.52.52,0,0,1-.29.09.53.53,0,0,1-.3-.09L12,17.25,6.59,21.19a.53.53,0,0,1-.59,0,.49.49,0,0,1-.18-.56l2.07-6.37L2.47,10.33a.5.5,0,0,1,.3-.9H9.46l2.06-6.37a.53.53,0,0,1,1,0l2.06,6.37h6.69a.5.5,0,0,1,.3.9Z"/>
    <text x="0" y="39" fill="#000000" font-size="5px" font-weight="bold" font-family="'Helvetica Neue', Helvetica, Arial-Unicode, Arial, Sans-serif">
        Created by P Thanga Vignesh
    </text>
    <text x="0" y="44" fill="#000000" font-size="5px" font-weight="bold" font-family="'Helvetica Neue', Helvetica, Arial-Unicode, Arial, Sans-serif">
        from the Noun Project
    </text>
</svg>